<?xml version="1.0" standalone="no"?>
<!DOCTYPE svg PUBLIC "-//W3C//DTD SVG 20010904//EN"
 "http://www.w3.org/TR/2001/REC-SVG-20010904/DTD/svg10.dtd">
<svg version="1.0" xmlns="http://www.w3.org/2000/svg"
 width="192.000000pt" height="192.000000pt" viewBox="0 0 192.000000 192.000000"
 preserveAspectRatio="xMidYMid meet">
<metadata>
Created by potrace 1.11, written by Peter Selinger 2001-2013
</metadata>
<g transform="translate(0.000000,192.000000) scale(0.100000,-0.100000)"
fill="#000000" stroke="none">
<path d="M735 1909 c-299 -23 -560 -97 -629 -179 l-26 -32 0 -407 c0 -369 2
-415 19 -483 26 -102 70 -194 145 -307 169 -253 393 -420 653 -487 l69 -17 90
27 c344 107 638 399 755 751 23 68 23 81 26 490 3 328 1 425 -10 445 -71 139
-605 236 -1092 199z m410 -159 c211 -15 347 -41 482 -91 l53 -20 0 -358 c0
-389 -2 -406 -60 -542 -37 -88 -121 -217 -188 -291 -91 -98 -244 -202 -364
-247 l-28 -11 0 105 0 105 -80 0 -80 0 0 -105 0 -105 -52 21 c-101 39 -210
112 -303 204 -103 101 -160 179 -215 299 -68 144 -70 162 -70 564 l0 360 53
21 c194 78 530 114 852 91z"/>
<path d="M533 1510 c-22 -5 -59 -18 -82 -29 -43 -22 -128 -98 -119 -106 3 -3
31 6 62 21 31 14 85 31 120 37 57 10 67 9 110 -12 26 -13 59 -39 74 -59 15
-19 37 -46 49 -59 49 -52 141 -8 130 62 -14 84 -104 144 -229 150 -40 2 -92 0
-115 -5z"/>
<path d="M1199 1506 c-95 -25 -159 -86 -159 -152 0 -39 38 -74 82 -74 29 0 42
11 103 86 16 21 50 46 74 57 65 29 120 19 280 -50 29 -13 -31 53 -77 84 -83
56 -204 76 -303 49z"/>
<path d="M501 1261 c-29 -10 -64 -30 -78 -43 l-25 -25 30 -22 c96 -68 248 -68
344 1 l31 21 -31 28 c-36 32 -117 59 -176 59 -23 -1 -65 -9 -95 -19z"/>
<path d="M1232 1265 c-44 -13 -112 -54 -112 -67 0 -4 13 -16 29 -28 84 -59
204 -67 299 -19 34 17 62 37 62 44 0 19 -54 55 -107 71 -57 17 -115 17 -171
-1z"/>
<path d="M876 825 l-79 -105 -61 0 -61 0 -67 80 -66 80 -62 -51 c-52 -44 -59
-53 -48 -68 7 -9 48 -58 91 -108 l79 -93 138 0 138 0 37 50 c20 28 40 50 43
49 4 0 24 -22 45 -50 l37 -49 138 0 139 0 91 108 92 107 -48 43 c-76 69 -70
70 -142 -18 l-65 -79 -62 0 -61 -1 -82 105 c-44 58 -82 105 -83 105 -1 -1 -37
-48 -81 -105z"/>
</g>
</svg>
