<?xml version="1.0" encoding="UTF-8" standalone="no"?>
<svg
   xmlns:dc="http://purl.org/dc/elements/1.1/"
   xmlns:cc="http://creativecommons.org/ns#"
   xmlns:rdf="http://www.w3.org/1999/02/22-rdf-syntax-ns#"
   xmlns:svg="http://www.w3.org/2000/svg"
   xmlns="http://www.w3.org/2000/svg"
   xmlns:sodipodi="http://sodipodi.sourceforge.net/DTD/sodipodi-0.dtd"
   xmlns:inkscape="http://www.inkscape.org/namespaces/inkscape"
   width="12.970746mm"
   height="12.505799mm"
   viewBox="0 0 12.970746 12.505799"
   version="1.1"
   id="svg839"
   sodipodi:docname="arrow-left.svg"
   inkscape:version="1.0.2 (e86c870879, 2021-01-15, custom)">
  <defs
     id="defs833" />
  <sodipodi:namedview
     id="base"
     pagecolor="#ffffff"
     bordercolor="#666666"
     borderopacity="1.0"
     inkscape:pageopacity="0.0"
     inkscape:pageshadow="2"
     inkscape:zoom="6.6811463"
     inkscape:cx="3.651684"
     inkscape:cy="18.354817"
     inkscape:document-units="mm"
     inkscape:current-layer="layer1"
     inkscape:document-rotation="0"
     showgrid="false"
     inkscape:window-width="1916"
     inkscape:window-height="1052"
     inkscape:window-x="0"
     inkscape:window-y="24"
     inkscape:window-maximized="0" />
  <metadata
     id="metadata836">
    <rdf:RDF>
      <cc:Work
         rdf:about="">
        <dc:format>image/svg+xml</dc:format>
        <dc:type
           rdf:resource="http://purl.org/dc/dcmitype/StillImage" />
        <dc:title></dc:title>
      </cc:Work>
    </rdf:RDF>
  </metadata>
  <g
     inkscape:label="Layer 1"
     inkscape:groupmode="layer"
     id="layer1"
     transform="translate(-51.179697,-68.616968)">
    <g
       id="path1404"
       style="opacity:1"
       transform="translate(2.0957833,1.5680791)" />
    <g
       id="path1404-3"
       style="opacity:1"
       transform="translate(2.0957833,1.5680791)" />
    <g
       id="path1404-3-6"
       style="opacity:1"
       transform="rotate(90,54.826792,81.917652)">
      <path
         id="path1464"
         style="color:#000000;font-style:normal;font-variant:normal;font-weight:normal;font-stretch:normal;font-size:medium;line-height:normal;font-family:sans-serif;font-variant-ligatures:normal;font-variant-position:normal;font-variant-caps:normal;font-variant-numeric:normal;font-variant-alternates:normal;font-variant-east-asian:normal;font-feature-settings:normal;font-variation-settings:normal;text-indent:0;text-align:start;text-decoration:none;text-decoration-line:none;text-decoration-style:solid;text-decoration-color:#000000;letter-spacing:normal;word-spacing:normal;text-transform:none;writing-mode:lr-tb;direction:ltr;text-orientation:mixed;dominant-baseline:auto;baseline-shift:baseline;text-anchor:start;white-space:normal;shape-padding:0;shape-margin:0;inline-size:0;clip-rule:nonzero;display:inline;overflow:visible;visibility:visible;isolation:auto;mix-blend-mode:normal;color-interpolation:sRGB;color-interpolation-filters:linearRGB;solid-color:#000000;solid-opacity:1;vector-effect:none;fill:#000000;fill-opacity:1;fill-rule:nonzero;stroke:none;stroke-linecap:butt;stroke-linejoin:round;stroke-miterlimit:4;stroke-dasharray:none;stroke-dashoffset:0;stroke-opacity:1;color-rendering:auto;image-rendering:auto;shape-rendering:auto;text-rendering:auto;enable-background:accumulate;stop-color:#000000;stop-opacity:1"
         d="m 52.322266,74.484375 -5,8.660156 0.916015,0.529297 5,-8.660156 z m 0.458517,0.264922 -5,8.660254 M 42.78125,74.220703 A 0.52916664,0.52916664 0 0 0 42.251953,74.75 0.52916664,0.52916664 0 0 0 42.78125,75.279297 h 10 A 0.52916664,0.52916664 0 0 0 53.310547,74.75 0.52916664,0.52916664 0 0 0 52.78125,74.220703 Z m 0,0 a 0.52916664,0.52916664 0 0 0 -0.269531,0.07031 0.52916664,0.52916664 0 0 0 -0.193359,0.722656 l 5,8.660156 a 0.52916664,0.52916664 0 0 0 0.722656,0.19336 0.52916664,0.52916664 0 0 0 0.193359,-0.722657 l -5,-8.660156 A 0.52916664,0.52916664 0 0 0 42.78125,74.220703 Z m -0.0044,0.528594 5,8.660254 m -5,-8.660254 h 10" />
    </g>
  </g>
</svg>
